<svg preserveAspectRatio="none" width="100%" height="100%" overflow="visible" style="display: block;" viewBox="0 0 17.9932 16.7382" fill="none" xmlns="http://www.w3.org/2000/svg">
<path id="fill" fill-rule="evenodd" clip-rule="evenodd" d="M7.81807 0.488155C8.46895 -0.162718 9.52422 -0.162718 10.1751 0.488156L17.6245 7.93761C18.412 8.72506 17.8543 10.0715 16.7407 10.0715H15.6632V15.0715C15.6632 15.992 14.9171 16.7382 13.9966 16.7382H11.4966C10.5761 16.7382 9.82992 15.992 9.82992 15.0715V11.7382C9.82992 11.2779 9.45682 10.9048 8.99658 10.9048C8.53635 10.9048 8.16325 11.2779 8.16325 11.7382V15.0715C8.16325 15.992 7.41706 16.7382 6.49658 16.7382H3.99658C3.07611 16.7382 2.32992 15.992 2.32992 15.0715V10.0715H1.25251C0.138876 10.0715 -0.418834 8.72506 0.368622 7.93761L7.81807 0.488155ZM2.25843 8.40482H3.99658V15.0715H6.49658V11.7382C6.49658 10.3574 7.61587 9.23816 8.99658 9.23816C10.3773 9.23816 11.4966 10.3574 11.4966 11.7382V15.0715H13.9966V8.40482H15.7347L8.99658 1.66667L2.25843 8.40482Z" fill="var(--fill-0, #0D0D0F)"/>
</svg>
